<?xml version="1.0" standalone="no"?>
<!DOCTYPE svg PUBLIC "-//W3C//DTD SVG 20010904//EN"
 "http://www.w3.org/TR/2001/REC-SVG-20010904/DTD/svg10.dtd">
<svg version="1.0" xmlns="http://www.w3.org/2000/svg"
 width="1024.000000pt" height="1024.000000pt" viewBox="0 0 1024.000000 1024.000000"
 preserveAspectRatio="xMidYMid meet">
<metadata>
Created by potrace 1.14, written by Peter Selinger 2001-2017
</metadata>
<g transform="translate(0.000000,1024.000000) scale(0.100000,-0.100000)"
fill="#000000" stroke="none">
<path d="M0 5120 l0 -5120 5120 0 5120 0 0 5120 0 5120 -5120 0 -5120 0 0
-5120z m5422 4196 c59 -44 32 -136 -39 -136 -72 0 -101 79 -47 128 28 25 60
28 86 8z m-667 -32 c21 -8 45 -56 45 -89 0 -38 -41 -75 -85 -75 -74 0 -115 94
-65 148 21 22 69 29 105 16z m1509 -55 c65 -51 1 -153 -73 -114 -48 24 -55 72
-16 110 30 30 54 31 89 4z m-2055 -47 c7 -14 6 -25 -5 -40 -19 -27 -36 -28
-58 -3 -14 15 -15 24 -6 40 14 26 56 28 69 3z m2366 -43 c0 -17 -6 -24 -20
-24 -23 0 -33 34 -13 46 20 13 33 5 33 -22z m703 -101 c7 -7 12 -22 12 -35 0
-31 -47 -44 -67 -18 -17 24 -16 30 3 49 19 19 36 20 52 4z m-2882 -83 c18 -47
23 -51 77 -70 31 -11 57 -23 57 -27 0 -4 -19 -12 -42 -18 -53 -15 -93 -55
-108 -108 -11 -42 -30 -57 -30 -24 -1 31 -38 100 -62 113 -12 7 -36 15 -52 18
-46 10 -42 27 11 47 63 23 66 26 82 71 32 90 32 90 41 68 4 -11 16 -42 26 -70z
m-1241 35 c0 -18 -6 -26 -23 -28 -27 -4 -40 22 -22 44 19 22 45 13 45 -16z
m3819 5 c2 -7 -1 -21 -9 -31 -11 -15 -15 -16 -29 -5 -9 7 -16 22 -16 31 0 30
42 34 54 5z m-1053 -20 c52 -34 94 -121 85 -176 -16 -97 -74 -151 -170 -157
-73 -4 -115 15 -159 70 -77 96 -27 251 91 289 42 13 112 1 153 -26z m-441 -13
c0 -9 -131 -204 -155 -232 -11 -13 -7 -28 23 -92 l36 -77 73 -3 74 -3 -30 -47
-31 -48 -235 0 c-129 0 -235 3 -235 8 0 4 16 30 36 57 35 49 104 162 104 170
0 3 -17 13 -39 24 -78 40 -96 159 -32 208 21 16 83 16 104 1 9 -7 28 -28 41
-47 l25 -33 30 61 31 61 90 0 c50 0 90 -4 90 -8z m-1433 -34 c-3 -8 -6 -5 -6
6 -1 11 2 17 5 13 3 -3 4 -12 1 -19z m-322 -14 c14 -6 45 -53 45 -69 0 -3 -15
-12 -34 -20 -26 -11 -41 -12 -72 -3 -22 6 -45 11 -51 9 -7 -1 -13 4 -13 11 0
15 28 59 44 70 13 9 59 10 81 2z m2910 -39 c61 -13 134 -112 135 -182 0 -38
-10 -42 -28 -13 -18 29 -29 25 -48 -16 -37 -78 -127 -97 -190 -41 l-38 32 19
-30 19 -30 -31 29 c-17 15 -34 39 -37 52 -10 37 -26 28 -26 -13 0 -28 -3 -34
-10 -23 -16 24 -11 92 9 135 21 47 70 92 109 101 15 3 32 7 37 9 10 3 29 0 80
-10z m-1807 -66 c4 -34 -22 -57 -43 -39 -18 15 -20 56 -2 63 24 11 42 1 45
-24z m2362 -260 c22 -43 47 -59 133 -83 31 -9 57 -18 57 -20 0 -3 -30 -14 -67
-26 -105 -34 -119 -48 -150 -151 -14 -49 -28 -87 -30 -85 -2 2 -11 32 -20 67
-8 35 -24 78 -34 95 -20 33 -84 67 -152 79 -20 4 -39 10 -42 14 -2 4 28 18 68
30 93 30 120 58 147 152 12 41 24 81 27 89 3 8 14 -16 24 -53 11 -38 28 -86
39 -108z m503 127 c7 -19 -18 -40 -38 -32 -15 6 -20 28 -8 39 12 12 41 7 46
-7z m-4902 -26 c12 0 39 -54 39 -79 0 -27 -48 -63 -73 -55 -11 3 -27 7 -36 8
-9 2 -22 14 -30 28 -12 21 -12 30 -2 56 13 31 53 54 79 46 8 -2 18 -4 23 -4z
m419 -55 c7 -22 23 -63 35 -91 21 -46 27 -53 81 -74 33 -13 73 -29 91 -37 l32
-15 -87 -42 c-48 -24 -93 -51 -101 -60 -8 -10 -30 -50 -47 -89 -27 -57 -34
-68 -40 -52 -31 86 -48 123 -67 144 -24 25 -127 81 -151 81 -42 0 -18 24 61
60 l88 41 27 67 c15 37 32 80 38 96 13 34 23 27 40 -29z m1481 -7 c23 -60 26
-64 79 -85 30 -12 56 -26 58 -31 1 -5 -12 -15 -30 -21 -81 -30 -84 -33 -117
-111 -18 -41 -20 -43 -27 -22 -4 13 -16 42 -28 65 -18 36 -29 44 -71 58 -27 9
-50 22 -50 29 0 7 18 19 39 26 54 19 62 28 88 95 13 32 26 59 29 59 3 0 16
-28 30 -62z m-1131 20 c14 -26 13 -29 -7 -50 -19 -18 -26 -20 -47 -10 -30 13
-44 56 -25 78 19 23 61 13 79 -18z m2579 -94 c69 -49 54 -158 -25 -184 -72
-24 -134 21 -134 97 0 36 6 50 29 74 34 34 92 40 130 13z m2079 -60 c40 -28
19 -94 -31 -94 -23 0 -57 31 -57 51 0 13 42 59 54 59 6 0 22 -7 34 -16z
m-4298 -79 c17 -21 3 -55 -23 -55 -29 0 -53 36 -36 56 15 18 43 18 59 -1z
m1678 -47 c21 -21 14 -66 -12 -83 -47 -31 -93 22 -62 70 18 27 54 33 74 13z
m815 -29 c44 -48 28 -124 -32 -149 -53 -22 -113 11 -128 68 -9 36 22 91 60
107 40 18 65 11 100 -26z m1353 -39 c19 -68 25 -75 91 -99 26 -9 47 -21 46
-26 -1 -5 -20 -14 -43 -21 -57 -17 -78 -39 -96 -101 -8 -29 -17 -53 -18 -53
-2 0 -13 26 -25 59 -25 69 -37 80 -99 96 -25 7 -48 17 -50 23 -1 5 22 18 53
27 54 15 58 19 80 68 12 29 25 60 28 70 10 27 15 21 33 -43z m-3318 38 c32
-32 -9 -99 -49 -78 -24 13 -33 45 -19 70 12 22 49 27 68 8z m1401 -24 c23 -29
16 -55 -19 -74 -31 -17 -70 12 -70 51 0 14 38 49 54 49 8 0 24 -12 35 -26z
m-651 -41 c-5 -26 -58 -36 -152 -28 -75 6 -86 9 -86 26 0 18 9 19 121 19 108
0 120 -2 117 -17z m-2504 -62 c35 -39 4 -90 -47 -77 -35 8 -46 49 -22 76 23
25 47 25 69 1z m4236 -6 c26 -32 -13 -81 -47 -59 -35 22 -23 74 17 74 10 0 23
-7 30 -15z m-296 -11 c21 -21 20 -37 -5 -60 -24 -22 -52 -10 -57 25 -7 43 32
65 62 35z m-3683 -35 c18 -18 19 -23 6 -42 -17 -26 -43 -33 -62 -17 -20 17
-19 57 3 69 24 15 29 14 53 -10z m664 2 c70 -32 105 -86 105 -162 0 -83 -51
-145 -136 -168 -80 -21 -184 33 -213 112 -56 147 99 285 244 218z m-1204 -30
c23 -24 29 -38 29 -74 0 -38 -5 -49 -31 -71 -71 -60 -169 -15 -169 77 0 38 5
49 31 71 44 37 101 36 140 -3z m4923 -86 c15 -19 30 -35 34 -35 4 0 18 16 32
35 25 35 44 42 69 26 11 -7 7 -19 -23 -61 l-38 -52 30 -32 c16 -17 35 -41 41
-53 11 -22 10 -23 -22 -23 -28 0 -40 7 -62 36 l-28 36 -37 -41 c-41 -45 -48
-47 -75 -27 -17 12 -16 16 25 59 l42 47 -36 44 c-44 55 -47 76 -7 76 21 0 36
-9 55 -35z m966 -23 c0 -43 -14 -62 -47 -62 -21 0 -23 4 -23 50 l0 50 35 0
c34 0 35 -1 35 -38z m-2618 -1 c177 -28 351 -72 502 -126 71 -25 136 -50 145
-55 10 -6 -96 -9 -300 -10 -288 0 -323 -2 -381 -20 -275 -85 -231 -415 61
-459 l46 -7 -50 -26 c-51 -27 -84 -58 -124 -115 l-22 -33 -883 0 c-691 0 -886
-3 -899 -13 -10 -6 -20 -29 -23 -49 -5 -30 -2 -41 19 -62 l26 -26 393 -2 c216
-1 401 -1 411 -1 14 0 17 -5 12 -21 -38 -116 -40 -134 -24 -193 9 -32 19 -66
24 -76 7 -16 1 -18 -66 -15 l-74 3 -7 43 c-15 92 -79 156 -168 171 -30 5 -282
9 -560 8 l-505 -2 -45 -25 c-57 -32 -101 -94 -107 -154 l-6 -46 -118 0 c-66 0
-119 4 -119 8 0 10 200 262 222 280 10 8 75 14 197 19 l182 6 24 29 c28 33 30
46 13 83 -16 35 -65 47 -171 43 -48 -2 -87 -1 -87 2 0 3 45 48 100 99 l101 93
857 4 857 3 23 26 c12 14 22 36 22 49 0 31 -34 64 -72 70 -18 3 -354 4 -745 3
-472 -1 -712 1 -710 8 2 6 44 35 93 66 376 236 851 397 1289 438 158 15 499 5
647 -18z m1341 -139 c22 -43 46 -63 100 -82 58 -21 15 -30 -139 -30 -126 0
-154 3 -154 14 0 8 13 17 30 21 28 6 90 65 90 86 0 5 7 26 16 47 l16 37 10
-25 c5 -14 19 -44 31 -68z m-5223 13 c26 -31 -13 -82 -44 -56 -16 14 -22 52
-9 64 11 12 40 8 53 -8z m6974 -11 c9 -8 16 -19 16 -24 0 -14 -30 -40 -45 -40
-12 0 -35 29 -35 44 0 8 31 36 40 36 5 0 16 -7 24 -16z m-5556 -6 c27 -27 7
-78 -30 -78 -27 0 -52 44 -38 69 12 23 49 28 68 9z m-490 -34 c74 -31 132
-111 131 -184 0 -31 -1 -33 -11 -15 -6 11 -12 22 -14 24 -2 2 -14 -10 -29 -25
-61 -68 -78 -82 -120 -94 -38 -11 -48 -10 -82 6 -34 17 -94 82 -106 116 -9 28
-21 -6 -21 -59 l1 -56 -13 33 c-38 89 16 214 111 256 41 18 108 17 153 -2z
m5046 -69 c7 -20 -18 -49 -38 -42 -25 10 -32 38 -12 53 20 14 42 9 50 -11z
m-5696 -107 c3 -32 0 -38 -17 -38 -36 0 -51 12 -51 39 0 35 8 43 40 39 21 -3
25 -9 28 -40z m6224 -8 c-3 -51 -6 -55 -44 -64 l-28 -6 0 60 0 61 38 -3 37 -3
-3 -45z m-1912 -71 c76 -35 129 -84 156 -144 38 -81 26 -165 -30 -221 -43 -43
-89 -54 -227 -54 l-115 0 -22 45 c-27 55 -72 89 -224 166 -133 68 -178 110
-178 164 0 22 8 43 21 56 20 20 29 20 292 17 269 -3 273 -3 327 -29z m1123
-40 c53 -64 -18 -153 -92 -115 -32 17 -41 34 -41 76 0 63 90 90 133 39z
m-4311 -21 c33 -26 22 -83 -17 -90 -52 -10 -86 49 -49 86 19 19 44 20 66 4z
m5378 -47 c16 -31 12 -51 -14 -62 -47 -22 -90 33 -54 69 18 18 56 14 68 -7z
m-6506 -86 c21 -71 49 -101 114 -123 30 -10 53 -22 53 -27 0 -5 -27 -19 -60
-30 -33 -11 -65 -25 -71 -31 -7 -7 -22 -40 -34 -74 l-23 -62 -22 62 c-25 68
-50 89 -129 110 -63 17 -69 25 -30 39 103 38 119 50 142 104 12 28 26 60 29
70 10 27 14 21 31 -38z m336 14 c9 -16 8 -25 -6 -40 -22 -25 -30 -24 -50 6
-13 20 -14 28 -4 40 18 21 47 19 60 -6z m4370 -69 c1 11 4 9 10 -5 7 -17 9
-18 9 -2 1 16 4 16 38 2 21 -9 39 -12 42 -6 7 11 87 18 98 8 4 -5 1 -12 -7
-17 -11 -7 -7 -10 15 -10 23 0 27 3 15 10 -13 8 -12 10 3 10 10 0 15 5 12 10
-3 6 3 10 15 10 12 0 19 -4 16 -8 -2 -4 3 -8 12 -9 47 -4 73 -12 103 -33 80
-56 149 -112 149 -121 0 -7 -74 -9 -207 -7 -196 3 -211 4 -253 26 -61 33 -95
74 -115 142 -7 24 -7 24 9 5 15 -20 15 -20 17 5 l1 25 8 -25 c4 -14 9 -18 10
-10z m1734 -30 c45 -17 29 -80 -19 -80 -42 0 -59 44 -29 74 18 19 16 19 48 6z
m-5554 -62 c25 -27 25 -30 -1 -54 -17 -15 -36 -19 -93 -18 -78 0 -116 15 -116
44 0 34 38 50 117 50 61 0 75 -3 93 -22z m-1486 -29 c14 -11 26 -28 26 -36 0
-23 -30 -53 -52 -53 -22 0 -58 34 -58 55 0 16 34 55 49 55 4 0 20 -9 35 -21z
m7674 9 c28 -28 1 -75 -37 -63 -25 8 -34 31 -21 56 12 21 40 25 58 7z m-1301
-24 c7 -19 -15 -54 -35 -54 -35 0 -55 43 -31 67 13 13 59 4 66 -13z m-1942 -4
c45 -22 75 -64 75 -107 0 -63 -66 -123 -136 -123 -68 0 -134 62 -134 127 0 56
70 118 139 122 8 1 33 -8 56 -19z m2423 -92 c7 -7 12 -21 12 -33 0 -12 -5 -26
-12 -33 -27 -27 -78 -7 -78 29 0 39 52 63 78 37z m-5655 -15 c-2 -7 4 -10 12
-7 13 6 20 -6 16 -28 0 -5 4 -7 10 -5 6 1 14 -4 17 -12 2 -8 0 -11 -6 -7 -6 3
-9 -1 -7 -11 2 -10 4 -20 4 -23 1 -3 5 1 10 9 6 9 8 1 7 -26 -7 -128 -149
-140 -186 -16 -16 53 0 97 44 124 33 21 83 22 79 2z m6079 0 c24 -21 23 -58
-2 -83 -26 -26 -46 -25 -75 5 -29 28 -31 42 -9 73 18 26 60 29 86 5z m-3155
-132 c67 -77 83 -81 285 -81 199 0 217 6 263 84 15 25 32 46 38 47 7 1 295 3
642 5 l629 3 41 -42 c52 -55 199 -256 192 -263 -11 -12 -2591 -4 -2629 8 -90
27 -150 118 -128 196 13 50 59 89 110 94 19 2 142 3 273 2 l238 0 46 -53z
m-3226 23 c22 -23 22 -27 9 -51 -22 -38 -53 -46 -84 -22 -32 25 -34 63 -4 83
32 22 51 20 79 -10z m6863 -120 c21 -20 20 -27 -4 -49 -16 -15 -22 -15 -35 -5
-18 15 -19 42 -3 58 16 16 23 15 42 -4z m-7038 -94 c20 -49 42 -94 48 -99 6
-5 60 -11 120 -15 61 -4 111 -8 113 -10 2 -2 -13 -16 -34 -32 -87 -65 -133
-110 -133 -129 0 -11 11 -62 24 -113 28 -109 34 -108 -98 -32 l-85 49 -93 -54
c-50 -30 -95 -55 -99 -55 -9 0 -2 51 21 143 21 83 19 86 -94 166 -41 30 -73
57 -71 61 3 4 53 8 112 9 117 2 128 7 150 61 40 98 66 149 73 145 5 -3 25 -46
46 -95z m-426 45 c15 -18 6 -61 -16 -69 -18 -7 -49 8 -57 26 -2 7 -1 23 4 36
10 26 50 30 69 7z m6668 -1 c24 -17 30 -62 10 -82 -9 -9 -82 -12 -267 -12
l-254 0 -39 40 c-67 72 -73 70 245 70 240 0 286 -2 305 -16z m-4131 -56 c29
-27 31 -86 4 -119 l-19 -24 -361 -3 -361 -3 0 -164 0 -164 -321 -3 -321 -3
-24 -28 c-27 -31 -29 -45 -13 -80 20 -44 42 -47 369 -47 l310 0 0 -39 c0 -66
-5 -72 -52 -55 -158 55 -338 -65 -338 -226 0 -177 206 -295 375 -216 59 27
125 98 144 153 8 22 15 108 18 211 l5 172 63 0 63 0 4 -87 c2 -74 7 -93 27
-121 45 -59 89 -72 242 -72 131 0 136 1 159 25 31 33 31 82 1 107 -19 15 -41
18 -132 18 -96 0 -111 2 -129 20 -23 23 -26 68 -7 93 11 14 46 17 292 19 l281
3 120 72 c140 84 194 109 325 151 153 49 262 65 454 65 249 0 439 -39 635
-132 73 -34 87 -38 96 -26 9 13 16 8 38 -24 26 -37 73 -74 121 -97 11 -5 252
-11 540 -14 l520 -5 2 -285 c1 -157 -1 -291 -6 -298 -6 -10 -17 -11 -54 -2
-26 7 -68 9 -99 5 -29 -3 -166 -9 -304 -11 l-251 -5 -28 48 c-33 56 -92 137
-152 209 -24 28 -43 54 -43 58 0 4 103 6 229 4 209 -3 231 -5 250 -22 12 -11
21 -31 21 -47 0 -44 -32 -59 -122 -59 -68 0 -79 -3 -92 -22 -22 -32 -20 -63 8
-95 21 -24 32 -28 95 -31 162 -9 251 62 251 201 l0 37 73 0 c65 0 76 3 96 24
17 18 22 32 17 50 -12 48 -30 56 -126 56 -78 0 -94 3 -145 30 l-57 30 -359 0
-359 0 -57 37 c-123 78 -300 147 -463 180 -130 27 -431 24 -566 -5 -306 -66
-552 -199 -757 -411 -57 -60 -128 -145 -157 -190 l-53 -81 -527 0 -526 0 -22
30 c-62 84 -240 195 -362 226 -85 22 -243 22 -334 0 -38 -9 -71 -14 -74 -11
-7 7 39 159 80 265 l34 85 73 5 c64 4 76 8 97 33 13 15 24 36 24 46 0 33 -39
71 -80 77 l-39 6 26 47 c70 122 128 217 137 223 6 4 88 8 181 7 l170 0 26 -38
c42 -60 82 -73 209 -69 99 3 111 5 135 28 36 33 47 64 34 97 -17 46 -36 54
-121 47 -102 -8 -126 -2 -144 41 -16 38 -8 69 23 97 18 16 57 18 429 21 548 5
602 3 631 -25z m4510 22 c51 0 64 -3 73 -19 19 -36 4 -46 -60 -43 -53 3 -60 6
-61 25 -1 20 -2 20 -9 -3 -4 -14 -8 -21 -9 -16 -1 5 -10 1 -20 -8 -23 -21 -70
-18 -84 5 -5 9 -7 28 -3 44 7 27 8 27 59 21 29 -3 80 -6 114 -6z m-7469 -128
c28 -81 -84 -125 -120 -47 -14 32 2 72 34 84 33 12 75 -6 86 -37z m3782 -106
c-151 -34 -330 -107 -525 -216 l-90 -50 -397 0 -398 0 0 85 0 85 288 0 c169 0
302 4 325 11 21 5 59 29 85 52 l48 43 359 1 c304 1 351 -1 305 -11z m1087 -52
c-2 -36 -7 -67 -9 -70 -3 -2 -32 9 -64 24 -52 26 -233 91 -289 105 -11 3 67 5
174 6 l194 1 -6 -66z m1617 -1 c47 -73 106 -186 106 -203 0 -7 -238 -10 -736
-10 -658 0 -740 2 -770 16 -49 23 -77 68 -82 129 -4 52 -5 52 -60 81 -31 17
-57 35 -60 42 -3 9 169 12 777 12 l781 0 44 -67z m1053 -74 c87 -42 149 -153
141 -251 l-4 -43 -19 43 c-10 23 -21 42 -26 42 -4 0 -17 -20 -29 -45 -59 -121
-176 -169 -266 -109 -41 28 -71 63 -66 77 1 5 -3 5 -9 1 -9 -5 -10 -2 -6 9 3
10 2 17 -3 17 -6 0 -10 -4 -10 -10 0 -22 -19 -8 -30 23 -13 37 -23 27 -35 -38
-6 -33 -9 -37 -15 -20 -24 57 2 170 53 236 33 43 83 75 140 90 47 12 136 1
184 -22z m-593 -72 c19 -26 19 -30 5 -55 -27 -50 -107 -38 -122 19 -3 10 4 30
15 44 27 35 73 31 102 -8z m-6919 -67 c-23 -26 -37 -25 -54 2 -12 19 -11 24 9
40 23 19 24 19 44 -1 19 -20 19 -21 1 -41z m316 1 c16 -16 29 -36 29 -45 0
-33 -82 -48 -135 -24 -22 10 -28 9 -36 -3 -12 -19 -11 1 2 40 22 62 93 78 140
32z m521 -146 c10 -22 9 -29 -10 -47 -18 -19 -25 -20 -47 -10 -16 8 -25 20
-25 35 0 50 62 66 82 22z m5851 -141 c49 -129 102 -328 114 -421 l6 -53 -297
0 -296 0 0 155 c0 85 3 155 6 155 18 0 75 -57 95 -95 13 -25 27 -45 30 -45 11
0 60 122 65 164 13 95 -41 187 -138 235 l-61 31 214 0 215 0 47 -126z m-2393
41 c52 -8 129 -24 170 -35 105 -29 283 -118 377 -189 79 -59 221 -200 242
-240 l12 -21 -191 0 -190 0 -58 39 c-172 116 -337 166 -552 165 -211 0 -385
-52 -533 -157 l-66 -47 -200 0 c-111 0 -201 4 -201 8 0 5 34 45 75 89 283 305
704 451 1115 388z m3744 -17 c21 -30 20 -54 -4 -78 -41 -41 -110 -13 -110 44
0 53 84 78 114 34z m-7414 -40 c131 -68 90 -258 -55 -258 -55 0 -99 25 -125
71 -39 71 -14 150 60 190 45 25 66 24 120 -3z m-594 -22 c18 -18 18 -21 -2
-41 -12 -12 -19 -13 -30 -4 -24 20 -17 51 14 58 2 1 10 -5 18 -13z m2115 -27
c30 -16 59 -69 59 -110 0 -41 -34 -93 -56 -85 -7 3 -50 6 -96 7 -101 2 -118
13 -118 75 0 34 7 51 32 80 18 20 41 40 52 45 25 10 98 4 127 -12z m4979 -179
c11 -11 20 -28 20 -37 0 -23 -30 -53 -53 -53 -26 0 -57 28 -57 52 0 22 34 58
55 58 8 0 24 -9 35 -20z m-5060 -30 c-55 -7 -80 -4 -80 9 0 3 30 4 67 2 l68
-5 -55 -6z m5434 -31 c24 -36 3 -69 -45 -69 -27 0 -39 15 -39 49 0 42 58 56
84 20z m-7379 -86 c11 -59 41 -120 69 -138 14 -9 51 -23 83 -32 32 -8 62 -17
67 -20 5 -3 -24 -16 -63 -28 -115 -37 -127 -51 -162 -185 l-12 -45 -17 72 c-9
39 -24 82 -32 95 -17 26 -64 49 -143 71 l-50 13 50 18 c135 50 148 63 176 178
13 55 24 55 34 1z m1284 -58 c211 -67 361 -267 361 -483 l0 -65 44 41 c51 47
96 72 128 72 36 0 121 -54 166 -105 50 -57 75 -128 75 -215 -1 -153 -92 -284
-240 -345 -46 -19 -77 -20 -700 -23 -696 -3 -727 -1 -821 47 -67 34 -129 98
-164 169 -95 192 -5 423 184 473 40 11 50 10 91 -10 26 -12 69 -42 96 -67 l49
-44 4 94 c4 86 7 101 46 179 70 141 194 244 347 288 95 28 236 25 334 -6z
m-824 -11 c22 -23 15 -56 -17 -73 -24 -14 -28 -14 -47 3 -23 21 -27 56 -9 74
17 17 54 15 73 -4z m6575 -34 c27 -27 25 -56 -5 -85 -13 -14 -33 -25 -45 -25
-28 0 -60 35 -60 67 0 57 69 84 110 43z m-1119 -88 c40 -45 54 -103 34 -142
-22 -42 -52 -59 -122 -66 -73 -8 -114 11 -131 60 -26 70 -9 125 48 164 29 20
44 23 89 19 45 -3 59 -9 82 -35z m1671 10 c10 -9 20 -33 23 -52 3 -19 3 -29
-1 -22 -3 6 -11 9 -17 5 -7 -4 -40 -8 -74 -8 l-63 -1 0 32 c0 65 84 94 132 46z
m-4965 -134 c-16 -40 -40 -109 -52 -153 l-22 -80 -169 -2 -169 -3 -25 41 c-58
95 -174 185 -290 225 -35 13 -66 28 -68 33 -3 8 126 11 411 11 l415 0 -31 -72z
m2929 23 c-12 -95 57 -199 159 -240 l50 -19 -196 0 -195 0 -12 69 c-7 38 -25
107 -41 154 l-30 85 136 0 136 0 -7 -49z m1178 -64 c5 -59 6 -110 4 -112 -3
-3 -30 4 -61 14 -166 57 -356 48 -515 -25 -40 -18 -84 -42 -99 -53 -21 -17
-40 -21 -107 -20 l-81 0 51 20 c96 37 159 121 171 229 l6 60 311 -2 311 -3 9
-108z m-3204 100 c0 -2 -43 -82 -96 -178 -52 -96 -121 -221 -151 -279 -31 -58
-67 -125 -81 -150 -60 -110 -142 -267 -142 -273 0 -4 217 -7 483 -7 411 0 486
2 504 15 16 11 23 30 28 74 11 99 13 98 -182 103 -146 4 -173 7 -208 25 -54
29 -99 78 -127 138 -20 44 -23 65 -23 180 0 122 2 133 28 187 16 32 48 75 73
97 82 72 72 71 684 71 621 0 614 1 698 -75 79 -71 96 -122 97 -280 0 -122 -2
-133 -28 -187 -30 -61 -65 -96 -131 -130 -33 -18 -64 -22 -163 -26 l-123 -4 0
-288 c0 -344 -9 -321 129 -322 50 -1 91 -4 91 -9 0 -4 -35 -40 -78 -81 -155
-145 -334 -244 -536 -295 -136 -34 -386 -43 -523 -19 -254 44 -490 160 -667
328 l-71 67 95 3 c52 1 154 1 225 -1 111 -2 137 -6 180 -26 136 -63 267 -90
435 -89 205 1 342 44 422 132 66 73 63 50 66 495 l3 407 55 0 c36 0 69 -7 97
-21 51 -27 200 -38 245 -20 56 23 71 117 28 168 l-24 28 -504 3 c-486 2 -504
2 -535 -17 -55 -34 -67 -127 -21 -168 18 -16 36 -18 164 -15 200 5 264 -19
320 -121 28 -49 29 -59 32 -194 5 -179 -9 -234 -73 -298 -76 -77 -54 -75 -847
-75 -396 0 -698 4 -698 9 0 5 35 73 79 152 43 79 137 254 208 389 72 135 143
266 158 293 l27 47 -206 0 c-113 0 -206 3 -206 8 0 4 25 58 55 120 l54 112
340 0 c188 0 341 -1 341 -3z m3737 -87 c38 -23 55 -52 55 -95 0 -43 -16 -72
-52 -90 -46 -24 -78 -19 -116 19 -57 57 -43 140 30 172 41 18 46 17 83 -6z
m672 -46 c12 -15 21 -34 21 -44 0 -10 -9 -29 -21 -44 -40 -50 -119 -21 -119
44 0 65 79 94 119 44z m-8308 -100 c9 -11 10 -20 2 -32 -15 -24 -44 -27 -59
-7 -28 38 27 75 57 39z m6984 -159 c133 -35 261 -121 346 -232 61 -80 90 -157
96 -260 l6 -82 66 47 c56 40 72 47 111 46 97 -2 216 -89 263 -192 30 -66 30
-188 0 -254 -28 -62 -96 -134 -158 -166 l-50 -27 -529 -3 c-361 -2 -546 1
-583 8 -79 17 -187 75 -244 132 -116 116 -166 307 -124 473 8 33 36 103 61
154 39 78 62 110 133 182 71 72 102 95 171 129 47 22 105 44 130 49 76 15 240
12 305 -4z m945 -20 c65 -33 79 -122 30 -179 -63 -72 -189 -42 -206 50 -19
102 83 177 176 129z m-5016 -137 c4 -51 9 -119 13 -150 l6 -58 -165 0 -165 0
19 82 c12 52 18 106 16 150 l-3 68 136 0 136 0 7 -92z m3276 83 c0 -4 -16 -22
-35 -41 -28 -27 -87 -121 -144 -230 -7 -12 -36 -16 -148 -18 l-139 -3 12 73
c7 40 13 108 14 150 l0 78 220 -1 c121 -1 220 -4 220 -8z m2145 -220 c0 -22
-34 -39 -44 -22 -5 8 -7 20 -4 28 7 18 48 13 48 -6z m-7991 -210 c36 -39 -13
-96 -60 -70 -26 14 -33 56 -12 77 18 18 53 14 72 -7z m2616 -38 c-1 -10 -47
-99 -104 -198 l-103 -180 202 -3 203 -2 28 -38 c16 -20 50 -61 78 -89 l49 -53
-853 0 c-689 0 -850 2 -842 13 6 7 16 42 23 79 10 57 10 76 -4 134 -9 37 -23
80 -31 95 l-14 29 263 0 c244 0 269 2 354 24 50 13 91 20 91 16 0 -9 63 45
150 127 l65 63 223 0 c205 0 222 -1 222 -17z m2993 -10 c-11 -42 -8 -191 6
-253 14 -68 62 -166 119 -242 l43 -58 -392 0 -392 0 46 53 c128 145 222 310
292 515 3 9 41 12 145 12 l140 0 -7 -27z m2251 -70 c7 -18 -10 -43 -30 -43
-18 0 -28 38 -14 55 13 16 36 10 44 -12z m-6790 -176 c88 -67 107 -192 43
-279 -94 -127 -320 -65 -335 92 -9 98 20 159 97 200 54 30 146 23 195 -13z
m-865 -107 c8 -15 29 -27 86 -50 l30 -13 -35 -13 c-71 -28 -85 -40 -100 -82
-8 -23 -17 -42 -21 -42 -3 0 -11 17 -17 38 -14 47 -36 67 -81 79 -44 11 -50
29 -14 37 47 12 73 35 95 84 l20 47 14 -35 c8 -19 18 -42 23 -50z m315 24 c10
-26 7 -34 -14 -34 -13 0 -20 7 -20 18 0 33 23 44 34 16z m113 -10 c1 -18 -2
-23 -9 -16 -6 6 -8 18 -5 26 9 22 12 20 14 -10z m-115 -209 c-5 -29 -25 -29
-30 0 -4 17 16 38 29 30 3 -3 4 -16 1 -30z m115 10 c-4 -8 -2 -17 3 -20 5 -3
11 3 13 12 4 16 5 16 6 1 1 -21 -11 -29 -28 -18 -13 8 -9 40 5 40 3 0 4 -7 1
-15z m2602 -225 c244 -139 473 -200 755 -200 292 0 530 65 768 209 l67 41 581
0 c481 0 586 -2 608 -14 44 -23 174 -46 257 -46 41 0 75 -2 75 -5 0 -16 -171
-252 -190 -262 -17 -8 -598 -11 -2305 -12 l-2281 0 -35 37 c-58 62 -156 200
-198 280 l-12 22 911 0 910 0 89 -50z m-2097 -57 c39 -42 158 -222 150 -227
-9 -6 -155 -5 -165 1 -5 3 0 14 10 25 21 23 24 91 5 110 -10 10 -94 14 -355
16 -298 2 -344 5 -359 19 -21 19 -24 53 -6 71 9 9 101 12 353 12 l341 0 26
-27z m5870 -200 c2 -109 5 -204 8 -212 10 -27 -20 -22 -50 7 l-30 30 0 151 0
151 -140 0 c-125 0 -141 -2 -148 -17 -9 -24 -9 -122 1 -153 5 -15 5 -20 -1
-12 -7 10 -11 10 -21 -2 -31 -37 -71 31 -71 119 0 53 3 60 39 96 l39 39 185 0
186 0 3 -197z m-6784 136 c2 -18 -3 -29 -14 -33 -25 -9 -48 16 -39 43 10 32
49 24 53 -10z m7126 -61 c22 -31 20 -64 -4 -88 -58 -58 -142 20 -94 88 10 15
25 22 49 22 24 0 39 -7 49 -22z m315 -4 c16 -35 5 -63 -26 -70 -31 -8 -53 4
-64 33 -20 54 66 89 90 37z m-6979 -233 c52 -27 92 -97 88 -152 l-3 -44 -14
28 c-8 15 -18 27 -22 27 -4 0 -17 -17 -29 -38 -25 -44 -44 -58 -91 -67 -42 -7
-94 22 -112 63 -12 27 -37 42 -37 21 0 -5 -4 -8 -9 -5 -5 4 -14 -6 -19 -21
-10 -26 -10 -24 -11 19 -1 26 6 66 16 89 34 85 157 126 243 80z m2337 -32
c100 -38 145 -178 88 -274 -45 -77 -37 -76 -527 -73 l-433 3 -85 42 c-102 51
-186 113 -306 227 l-89 85 662 1 c445 0 671 -3 690 -11z m1353 0 c64 -14 127
-61 185 -137 60 -78 93 -99 229 -142 56 -18 139 -45 186 -60 l85 -28 -85 -7
c-47 -3 -252 -5 -456 -3 l-370 3 -77 38 c-121 60 -216 169 -217 249 0 41 44
86 88 91 81 8 390 6 432 -4z m1615 -40 c-76 -78 -225 -199 -304 -246 -185
-111 -367 -101 -493 28 l-57 59 -90 -1 c-66 0 -99 4 -126 17 -42 20 -75 66
-75 105 0 33 33 76 63 82 12 2 272 5 577 6 l554 1 -49 -51z m-2469 25 c62 -21
132 -77 150 -120 62 -148 -74 -253 -231 -179 -67 32 -110 80 -129 144 -22 74
-5 127 49 155 39 20 99 20 161 0z m-3358 -35 c4 -34 -20 -54 -47 -39 -38 20
-18 74 24 68 13 -2 21 -12 23 -29z m924 -6 c31 -28 21 -88 -17 -103 -52 -20
-105 32 -86 83 15 39 70 50 103 20z m230 -10 c22 -20 23 -51 1 -75 -32 -36
-103 -12 -103 35 0 49 64 75 102 40z m5195 -95 c69 -32 113 -108 113 -192 l-1
-41 -19 37 c-28 52 -37 54 -45 7 -10 -55 -68 -114 -123 -124 -73 -12 -134 29
-151 101 -7 32 -9 34 -10 12 -1 -30 -15 -37 -25 -13 -10 28 -26 15 -26 -22 0
-29 -3 -34 -12 -25 -7 7 -12 36 -12 65 0 131 116 238 239 219 17 -2 49 -13 72
-24z m456 -48 c38 -42 37 -92 -2 -131 -49 -48 -125 -38 -156 21 -28 54 -11
114 40 136 42 19 85 9 118 -26z m-5393 -30 c29 -29 26 -74 -6 -99 -15 -12 -32
-21 -39 -21 -7 0 -24 9 -39 21 -48 38 -22 119 39 119 14 0 34 -9 45 -20z
m5645 -150 c0 -18 -6 -26 -23 -28 -13 -2 -25 3 -28 12 -10 26 4 48 28 44 17
-2 23 -10 23 -28z m-1249 -170 c-6 -83 -11 -95 -51 -120 -29 -18 -47 -20 -140
-18 l-107 3 91 53 c102 59 121 81 132 154 6 35 17 60 36 80 l28 29 8 -58 c5
-32 6 -87 3 -123z m324 106 c26 -28 29 -36 13 -27 -23 12 -53 49 -53 65 0 5 1
7 3 5 1 -2 18 -22 37 -43z m-5458 7 c24 -21 23 -45 -3 -69 -15 -13 -24 -16
-36 -8 -32 20 -38 40 -20 68 20 30 33 32 59 9z m387 -75 c18 -62 34 -79 93
-99 l53 -18 -40 -15 c-80 -32 -90 -40 -105 -89 -8 -26 -17 -47 -20 -47 -3 0
-14 24 -25 53 -18 47 -24 54 -65 67 -25 9 -52 18 -60 21 -10 4 7 16 45 35 60
29 67 38 91 122 7 24 22 11 33 -30z m2759 -8 c37 -23 89 -47 117 -56 77 -22
218 -36 355 -33 69 1 215 1 325 0 l200 -2 -50 -26 c-203 -106 -534 -195 -828
-224 -156 -14 -505 -7 -660 15 -265 38 -567 134 -829 266 -133 67 -158 82
-158 92 0 5 329 8 731 8 l730 0 67 -40z m-2127 -21 c21 -23 29 -41 28 -68 0
-33 -1 -34 -10 -12 -6 16 -14 21 -25 17 -41 -16 -106 -28 -123 -23 -11 3 -22
0 -25 -7 -2 -6 -5 6 -5 27 -1 30 6 45 28 68 42 41 92 40 132 -2z m4359 -200
c0 -58 -2 -64 -39 -100 -45 -45 -85 -52 -97 -17 -5 16 -1 27 16 40 12 10 28
18 35 18 15 0 25 22 25 56 0 24 31 64 50 64 6 0 10 -27 10 -61z m-4043 -17
c11 -7 16 -26 14 -49 0 -7 -10 -17 -21 -23 -27 -15 -60 4 -60 33 0 38 35 59
67 39z m3385 -39 c22 -20 23 -56 2 -77 -19 -20 -34 -20 -62 0 -27 19 -28 48
-2 74 24 24 38 25 62 3z m-3033 -43 c11 -6 -5 -9 -51 -10 -52 0 -68 3 -68 14
0 8 6 16 13 19 15 5 84 -10 106 -23z m2765 24 c23 -9 19 -33 -7 -39 -41 -11
-180 -1 -185 13 -2 6 7 16 20 21 26 11 148 14 172 5z m1111 -60 c19 -19 16
-43 -7 -57 -33 -21 -65 32 -36 61 16 16 23 15 43 -4z m-4757 -36 c8 -7 21 -27
28 -45 33 -77 -42 -159 -121 -133 -74 25 -99 109 -50 169 14 16 36 31 48 33
28 5 74 -7 95 -24z m4173 3 c16 -16 29 -39 29 -51 0 -27 -52 -80 -78 -80 -11
0 -31 9 -46 21 -20 16 -26 29 -26 59 0 30 6 43 26 59 36 28 60 26 95 -8z
m-4966 -25 c18 -28 9 -58 -24 -75 -41 -23 -84 52 -49 87 20 20 56 14 73 -12z
m5875 -21 c26 -32 -13 -81 -47 -59 -35 22 -23 74 17 74 10 0 23 -7 30 -15z
m-4090 -35 c46 -46 14 -120 -51 -120 -30 0 -69 40 -69 70 0 10 9 29 21 44 25
32 70 35 99 6z m461 -77 c11 -25 35 -67 54 -93 38 -52 41 -60 23 -60 -7 0 -28
-16 -48 -35 l-37 -36 -39 44 c-44 49 -72 67 -106 67 -20 0 -18 5 22 39 26 22
59 58 74 80 16 23 31 41 33 41 2 0 13 -21 24 -47z m1557 19 c19 -25 14 -59
-14 -81 -52 -41 -123 28 -81 81 24 31 70 31 95 0z m638 12 c30 -14 95 -99 83
-107 -66 -44 -133 -77 -156 -77 -19 0 -39 10 -58 30 -16 17 -35 28 -42 26 -20
-8 -16 44 6 80 20 33 72 63 109 64 13 0 39 -7 58 -16z m-968 -78 c-2 -15 -10
-21 -28 -21 -31 0 -40 33 -14 52 22 16 46 -1 42 -31z m-2112 -21 c61 24 84 30
84 20 0 -2 -11 -35 -26 -72 -24 -66 -25 -69 -10 -129 9 -34 18 -69 22 -78 6
-15 3 -15 -22 -4 -16 7 -49 25 -74 39 l-44 27 -41 -24 c-23 -13 -47 -24 -53
-24 -17 0 -25 43 -14 82 9 32 -2 93 -32 186 -7 21 -5 21 70 -13 l77 -35 63 25z
m1312 18 c3 -22 -28 -40 -48 -28 -12 7 -13 38 -3 49 15 14 48 1 51 -21z m2619
0 c-9 -2 -15 -9 -11 -14 3 -5 10 -7 15 -4 7 5 14 -65 12 -132 0 -6 6 -9 15 -5
11 4 14 1 9 -11 -4 -10 -2 -16 5 -14 15 3 22 -27 14 -59 -8 -31 -61 -64 -104
-64 -72 0 -127 107 -63 122 22 5 51 31 51 46 0 7 5 10 10 7 6 -3 10 -2 10 4 0
5 -4 13 -10 16 -13 8 -13 52 0 60 6 4 8 10 5 15 -11 18 8 40 34 39 17 -1 20
-3 8 -6z m-1247 -113 c39 -39 11 -110 -44 -110 -25 0 -66 41 -66 65 0 7 9 24
21 39 25 31 61 34 89 6z m-1534 -28 c17 -11 22 -35 12 -54 -10 -21 -39 -23
-56 -6 -32 32 7 85 44 60z m-602 -102 c50 -25 76 -59 81 -108 3 -20 2 -29 -1
-19 -6 20 -39 23 -51 4 -16 -26 -66 -57 -92 -57 -17 0 -40 13 -63 36 -21 19
-42 33 -48 29 -7 -5 -9 3 -4 22 6 26 31 83 37 83 1 0 20 7 42 15 52 18 52 18
99 -5z m-1069 -40 c18 -20 18 -21 -3 -43 -18 -17 -26 -19 -40 -11 -22 14 -27
41 -12 59 17 20 34 19 55 -5z m4018 -21 c37 -40 36 -82 -2 -120 -22 -21 -39
-29 -66 -29 -98 0 -118 143 -25 179 34 13 60 5 93 -30z m-2046 -10 c65 -62 18
-169 -74 -169 -111 0 -132 146 -28 191 29 12 75 2 102 -22z m639 0 c41 -25 73
-86 74 -137 1 -114 -125 -184 -229 -128 -23 13 -26 12 -40 -17 -24 -46 -63
-70 -125 -75 -67 -5 -100 12 -122 64 -18 43 -10 74 27 110 24 23 39 29 73 28
42 -1 43 0 60 47 12 37 28 56 61 79 95 66 150 73 221 29z m289 15 c19 -19 16
-43 -7 -57 -33 -21 -65 32 -36 61 16 16 23 15 43 -4z m-1470 -134 c0 -20 -6
-26 -26 -28 -28 -3 -43 16 -32 44 3 9 15 14 32 12 20 -2 26 -8 26 -28z m1648
-92 c52 -27 61 -75 22 -113 -30 -31 -62 -32 -92 -3 -31 29 -30 72 2 103 27 28
37 30 68 13z m-1391 -20 c30 -23 27 -62 -6 -83 -48 -32 -100 32 -61 75 21 23
44 25 67 8z m1862 -4 c20 -8 21 -48 2 -63 -33 -28 -74 27 -44 57 14 14 20 14
42 6z m-2256 -107 c18 -22 -13 -59 -46 -55 -21 2 -28 9 -30 29 -4 34 23 62 47
50 10 -6 23 -16 29 -24z m-693 -82 c0 -23 -5 -31 -21 -33 -27 -4 -47 21 -39
48 5 16 14 20 33 18 23 -2 27 -8 27 -33z m1267 -22 c22 -20 23 -61 1 -85 -47
-52 -125 21 -82 76 23 30 54 33 81 9z m762 -12 c34 -38 -8 -86 -54 -61 -25 13
-26 48 -2 66 24 18 36 17 56 -5z m-355 -77 c27 -35 26 -59 -4 -89 -43 -44 -97
-25 -109 37 -12 66 72 104 113 52z"/>
<path d="M5767 8890 c-49 -39 -42 -116 14 -145 42 -22 67 -18 100 14 45 45 40
110 -12 136 -38 20 -72 19 -102 -5z"/>
<path d="M6572 8688 c-21 -21 -15 -50 9 -46 31 4 49 35 29 48 -20 13 -24 12
-38 -2z"/>
<path d="M2627 7613 c-4 -3 -7 -17 -7 -30 0 -18 6 -23 24 -23 23 0 36 16 36
46 0 14 -41 20 -53 7z"/>
<path d="M2646 6973 c-10 -26 -6 -63 7 -64 25 -3 41 3 55 19 12 15 13 15 7 -3
-5 -15 -3 -17 5 -9 9 9 8 18 -5 37 -19 29 -61 41 -69 20z"/>
<path d="M8742 6144 c-39 -27 -23 -84 23 -84 25 0 55 29 55 53 0 14 -35 47
-50 47 -3 0 -16 -7 -28 -16z"/>
<path d="M1380 5889 c0 -5 5 -7 10 -4 6 3 10 8 10 11 0 2 -4 4 -10 4 -5 0 -10
-5 -10 -11z"/>
<path d="M2505 5241 c-73 -24 -174 -110 -207 -177 -89 -178 -13 -396 170 -486
66 -32 225 -33 292 -2 58 27 117 87 144 144 61 133 -11 302 -130 302 -76 0
-99 -63 -35 -99 128 -73 33 -253 -133 -253 -74 0 -164 61 -197 135 -38 82 -16
199 49 269 31 33 136 86 170 86 28 0 63 35 56 55 -4 9 -15 20 -25 25 -20 11
-123 12 -154 1z"/>
<path d="M7780 4641 c-87 -27 -175 -105 -212 -189 -63 -141 -7 -335 119 -419
103 -68 242 -82 345 -33 63 29 134 103 153 158 47 141 -23 292 -136 292 -71 0
-93 -64 -34 -100 38 -23 65 -65 65 -100 0 -65 -78 -140 -161 -155 -78 -14
-182 39 -223 116 -31 55 -35 138 -11 197 27 65 129 152 178 152 19 0 47 32 47
54 0 30 -71 45 -130 27z"/>
<path d="M3375 4150 c-3 -5 -1 -10 4 -10 6 0 11 5 11 10 0 6 -2 10 -4 10 -3 0
-8 -4 -11 -10z"/>
<path d="M6745 4051 c-64 -28 -82 -114 -32 -157 39 -34 84 -32 125 5 59 55 35
143 -43 156 -17 2 -39 1 -50 -4z"/>
<path d="M2053 3024 c-18 -8 -16 -41 3 -48 22 -8 56 12 52 32 -3 17 -32 25
-55 16z"/>
<path d="M7864 2795 c-32 -21 -21 -65 15 -65 48 0 71 49 32 70 -25 13 -23 13
-47 -5z"/>
<path d="M7582 1900 c0 -14 2 -19 5 -12 2 6 2 18 0 25 -3 6 -5 1 -5 -13z"/>
</g>
</svg>
